# xmcd
#
# Track frame offsets:
#	150
#	13276
#	37919
#	54655
#	71086
#	96045
#	106194
#	123007
#	141416
#	158563
#	185925
#
# Disc length: 2953 seconds
#
# Revision: 1
# Processed by: cddbd v1.5.2PL0 Copyright (c) Steve Scherf et al.
# Submitted via: audiograbber 1.81.03
#
DISCID=950b870b
DTITLE=Jimmy Thackery - Tom Principato - Partners In Crime
DYEAR=1996
DGENRE=Blues
TTITLE0=Partners In Crime
TTITLE1=Love To Ride
TTITLE2=Hopes Up High
TTITLE3=You Can Leave Your Hat On
TTITLE4=Today I Started Lovin' You Again
TTITLE5=Dear Dad
TTITLE6=Lonesome Train
TTITLE7=Everybody Needs Love
TTITLE8=Boogie Woogie Man From Tennessee
TTITLE9=Remington Ride (Instrumental Live)
TTITLE10=Honey Hush (Live)
EXTD=
EXTT0=
EXTT1=
EXTT2=
EXTT3=
EXTT4=
EXTT5=
EXTT6=
EXTT7=
EXTT8=
EXTT9=
EXTT10=
PLAYORDER=
